<svg xmlns="http://www.w3.org/2000/svg" viewBox="0 0 1024 1024" width="1024" height="1024">
<defs>
  <clipPath id="tile"><rect x="32" y="32" width="960" height="960" rx="216"/></clipPath>
</defs>
<g clip-path="url(#tile)">
  <rect x="32" y="32" width="960" height="960" fill="#141118"/>
  <circle cx="8" cy="8" r="4" fill="#221c29"/><circle cx="8" cy="72" r="4" fill="#221c29"/><circle cx="8" cy="136" r="4" fill="#221c29"/><circle cx="8" cy="200" r="4" fill="#221c29"/><circle cx="8" cy="264" r="4" fill="#221c29"/><circle cx="8" cy="328" r="4" fill="#221c29"/><circle cx="8" cy="392" r="4" fill="#221c29"/><circle cx="8" cy="456" r="4" fill="#221c29"/><circle cx="8" cy="520" r="4" fill="#221c29"/><circle cx="8" cy="584" r="4" fill="#221c29"/><circle cx="8" cy="648" r="4" fill="#221c29"/><circle cx="8" cy="712" r="4" fill="#221c29"/><circle cx="8" cy="776" r="4" fill="#221c29"/><circle cx="8" cy="840" r="4" fill="#221c29"/><circle cx="8" cy="904" r="4" fill="#221c29"/><circle cx="8" cy="968" r="4" fill="#221c29"/><circle cx="72" cy="8" r="4" fill="#221c29"/><circle cx="72" cy="72" r="4" fill="#221c29"/><circle cx="72" cy="136" r="4" fill="#221c29"/><circle cx="72" cy="200" r="4" fill="#221c29"/><circle cx="72" cy="264" r="4" fill="#221c29"/><circle cx="72" cy="328" r="4" fill="#221c29"/><circle cx="72" cy="392" r="4" fill="#221c29"/><circle cx="72" cy="456" r="4" fill="#221c29"/><circle cx="72" cy="520" r="4" fill="#221c29"/><circle cx="72" cy="584" r="4" fill="#221c29"/><circle cx="72" cy="648" r="4" fill="#221c29"/><circle cx="72" cy="712" r="4" fill="#221c29"/><circle cx="72" cy="776" r="4" fill="#221c29"/><circle cx="72" cy="840" r="4" fill="#221c29"/><circle cx="72" cy="904" r="4" fill="#221c29"/><circle cx="72" cy="968" r="4" fill="#221c29"/><circle cx="136" cy="8" r="4" fill="#221c29"/><circle cx="136" cy="72" r="4" fill="#221c29"/><circle cx="136" cy="136" r="4" fill="#221c29"/><circle cx="136" cy="200" r="4" fill="#221c29"/><circle cx="136" cy="264" r="4" fill="#221c29"/><circle cx="136" cy="328" r="4" fill="#221c29"/><circle cx="136" cy="392" r="4" fill="#221c29"/><circle cx="136" cy="456" r="4" fill="#221c29"/><circle cx="136" cy="520" r="4" fill="#221c29"/><circle cx="136" cy="584" r="4" fill="#221c29"/><circle cx="136" cy="648" r="4" fill="#221c29"/><circle cx="136" cy="712" r="4" fill="#221c29"/><circle cx="136" cy="776" r="4" fill="#221c29"/><circle cx="136" cy="840" r="4" fill="#221c29"/><circle cx="136" cy="904" r="4" fill="#221c29"/><circle cx="136" cy="968" r="4" fill="#221c29"/><circle cx="200" cy="8" r="4" fill="#221c29"/><circle cx="200" cy="72" r="4" fill="#221c29"/><circle cx="200" cy="136" r="4" fill="#221c29"/><circle cx="200" cy="200" r="4" fill="#221c29"/><circle cx="200" cy="264" r="4" fill="#221c29"/><circle cx="200" cy="328" r="4" fill="#221c29"/><circle cx="200" cy="392" r="4" fill="#221c29"/><circle cx="200" cy="456" r="4" fill="#221c29"/><circle cx="200" cy="520" r="4" fill="#221c29"/><circle cx="200" cy="584" r="4" fill="#221c29"/><circle cx="200" cy="648" r="4" fill="#221c29"/><circle cx="200" cy="712" r="4" fill="#221c29"/><circle cx="200" cy="776" r="4" fill="#221c29"/><circle cx="200" cy="840" r="4" fill="#221c29"/><circle cx="200" cy="904" r="4" fill="#221c29"/><circle cx="200" cy="968" r="4" fill="#221c29"/><circle cx="264" cy="8" r="4" fill="#221c29"/><circle cx="264" cy="72" r="4" fill="#221c29"/><circle cx="264" cy="136" r="4" fill="#221c29"/><circle cx="264" cy="200" r="4" fill="#221c29"/><circle cx="264" cy="264" r="4" fill="#221c29"/><circle cx="264" cy="328" r="4" fill="#221c29"/><circle cx="264" cy="392" r="4" fill="#221c29"/><circle cx="264" cy="456" r="4" fill="#221c29"/><circle cx="264" cy="520" r="4" fill="#221c29"/><circle cx="264" cy="584" r="4" fill="#221c29"/><circle cx="264" cy="648" r="4" fill="#221c29"/><circle cx="264" cy="712" r="4" fill="#221c29"/><circle cx="264" cy="776" r="4" fill="#221c29"/><circle cx="264" cy="840" r="4" fill="#221c29"/><circle cx="264" cy="904" r="4" fill="#221c29"/><circle cx="264" cy="968" r="4" fill="#221c29"/><circle cx="328" cy="8" r="4" fill="#221c29"/><circle cx="328" cy="72" r="4" fill="#221c29"/><circle cx="328" cy="136" r="4" fill="#221c29"/><circle cx="328" cy="200" r="4" fill="#221c29"/><circle cx="328" cy="264" r="4" fill="#221c29"/><circle cx="328" cy="328" r="4" fill="#221c29"/><circle cx="328" cy="392" r="4" fill="#221c29"/><circle cx="328" cy="456" r="4" fill="#221c29"/><circle cx="328" cy="520" r="4" fill="#221c29"/><circle cx="328" cy="584" r="4" fill="#221c29"/><circle cx="328" cy="648" r="4" fill="#221c29"/><circle cx="328" cy="712" r="4" fill="#221c29"/><circle cx="328" cy="776" r="4" fill="#221c29"/><circle cx="328" cy="840" r="4" fill="#221c29"/><circle cx="328" cy="904" r="4" fill="#221c29"/><circle cx="328" cy="968" r="4" fill="#221c29"/><circle cx="392" cy="8" r="4" fill="#221c29"/><circle cx="392" cy="72" r="4" fill="#221c29"/><circle cx="392" cy="136" r="4" fill="#221c29"/><circle cx="392" cy="200" r="4" fill="#221c29"/><circle cx="392" cy="264" r="4" fill="#221c29"/><circle cx="392" cy="328" r="4" fill="#221c29"/><circle cx="392" cy="392" r="4" fill="#221c29"/><circle cx="392" cy="456" r="4" fill="#221c29"/><circle cx="392" cy="520" r="4" fill="#221c29"/><circle cx="392" cy="584" r="4" fill="#221c29"/><circle cx="392" cy="648" r="4" fill="#221c29"/><circle cx="392" cy="712" r="4" fill="#221c29"/><circle cx="392" cy="776" r="4" fill="#221c29"/><circle cx="392" cy="840" r="4" fill="#221c29"/><circle cx="392" cy="904" r="4" fill="#221c29"/><circle cx="392" cy="968" r="4" fill="#221c29"/><circle cx="456" cy="8" r="4" fill="#221c29"/><circle cx="456" cy="72" r="4" fill="#221c29"/><circle cx="456" cy="136" r="4" fill="#221c29"/><circle cx="456" cy="200" r="4" fill="#221c29"/><circle cx="456" cy="264" r="4" fill="#221c29"/><circle cx="456" cy="328" r="4" fill="#221c29"/><circle cx="456" cy="392" r="4" fill="#221c29"/><circle cx="456" cy="456" r="4" fill="#221c29"/><circle cx="456" cy="520" r="4" fill="#221c29"/><circle cx="456" cy="584" r="4" fill="#221c29"/><circle cx="456" cy="648" r="4" fill="#221c29"/><circle cx="456" cy="712" r="4" fill="#221c29"/><circle cx="456" cy="776" r="4" fill="#221c29"/><circle cx="456" cy="840" r="4" fill="#221c29"/><circle cx="456" cy="904" r="4" fill="#221c29"/><circle cx="456" cy="968" r="4" fill="#221c29"/><circle cx="520" cy="8" r="4" fill="#221c29"/><circle cx="520" cy="72" r="4" fill="#221c29"/><circle cx="520" cy="136" r="4" fill="#221c29"/><circle cx="520" cy="200" r="4" fill="#221c29"/><circle cx="520" cy="264" r="4" fill="#221c29"/><circle cx="520" cy="328" r="4" fill="#221c29"/><circle cx="520" cy="392" r="4" fill="#221c29"/><circle cx="520" cy="456" r="4" fill="#221c29"/><circle cx="520" cy="520" r="4" fill="#221c29"/><circle cx="520" cy="584" r="4" fill="#221c29"/><circle cx="520" cy="648" r="4" fill="#221c29"/><circle cx="520" cy="712" r="4" fill="#221c29"/><circle cx="520" cy="776" r="4" fill="#221c29"/><circle cx="520" cy="840" r="4" fill="#221c29"/><circle cx="520" cy="904" r="4" fill="#221c29"/><circle cx="520" cy="968" r="4" fill="#221c29"/><circle cx="584" cy="8" r="4" fill="#221c29"/><circle cx="584" cy="72" r="4" fill="#221c29"/><circle cx="584" cy="136" r="4" fill="#221c29"/><circle cx="584" cy="200" r="4" fill="#221c29"/><circle cx="584" cy="264" r="4" fill="#221c29"/><circle cx="584" cy="328" r="4" fill="#221c29"/><circle cx="584" cy="392" r="4" fill="#221c29"/><circle cx="584" cy="456" r="4" fill="#221c29"/><circle cx="584" cy="520" r="4" fill="#221c29"/><circle cx="584" cy="584" r="4" fill="#221c29"/><circle cx="584" cy="648" r="4" fill="#221c29"/><circle cx="584" cy="712" r="4" fill="#221c29"/><circle cx="584" cy="776" r="4" fill="#221c29"/><circle cx="584" cy="840" r="4" fill="#221c29"/><circle cx="584" cy="904" r="4" fill="#221c29"/><circle cx="584" cy="968" r="4" fill="#221c29"/><circle cx="648" cy="8" r="4" fill="#221c29"/><circle cx="648" cy="72" r="4" fill="#221c29"/><circle cx="648" cy="136" r="4" fill="#221c29"/><circle cx="648" cy="200" r="4" fill="#221c29"/><circle cx="648" cy="264" r="4" fill="#221c29"/><circle cx="648" cy="328" r="4" fill="#221c29"/><circle cx="648" cy="392" r="4" fill="#221c29"/><circle cx="648" cy="456" r="4" fill="#221c29"/><circle cx="648" cy="520" r="4" fill="#221c29"/><circle cx="648" cy="584" r="4" fill="#221c29"/><circle cx="648" cy="648" r="4" fill="#221c29"/><circle cx="648" cy="712" r="4" fill="#221c29"/><circle cx="648" cy="776" r="4" fill="#221c29"/><circle cx="648" cy="840" r="4" fill="#221c29"/><circle cx="648" cy="904" r="4" fill="#221c29"/><circle cx="648" cy="968" r="4" fill="#221c29"/><circle cx="712" cy="8" r="4" fill="#221c29"/><circle cx="712" cy="72" r="4" fill="#221c29"/><circle cx="712" cy="136" r="4" fill="#221c29"/><circle cx="712" cy="200" r="4" fill="#221c29"/><circle cx="712" cy="264" r="4" fill="#221c29"/><circle cx="712" cy="328" r="4" fill="#221c29"/><circle cx="712" cy="392" r="4" fill="#221c29"/><circle cx="712" cy="456" r="4" fill="#221c29"/><circle cx="712" cy="520" r="4" fill="#221c29"/><circle cx="712" cy="584" r="4" fill="#221c29"/><circle cx="712" cy="648" r="4" fill="#221c29"/><circle cx="712" cy="712" r="4" fill="#221c29"/><circle cx="712" cy="776" r="4" fill="#221c29"/><circle cx="712" cy="840" r="4" fill="#221c29"/><circle cx="712" cy="904" r="4" fill="#221c29"/><circle cx="712" cy="968" r="4" fill="#221c29"/><circle cx="776" cy="8" r="4" fill="#221c29"/><circle cx="776" cy="72" r="4" fill="#221c29"/><circle cx="776" cy="136" r="4" fill="#221c29"/><circle cx="776" cy="200" r="4" fill="#221c29"/><circle cx="776" cy="264" r="4" fill="#221c29"/><circle cx="776" cy="328" r="4" fill="#221c29"/><circle cx="776" cy="392" r="4" fill="#221c29"/><circle cx="776" cy="456" r="4" fill="#221c29"/><circle cx="776" cy="520" r="4" fill="#221c29"/><circle cx="776" cy="584" r="4" fill="#221c29"/><circle cx="776" cy="648" r="4" fill="#221c29"/><circle cx="776" cy="712" r="4" fill="#221c29"/><circle cx="776" cy="776" r="4" fill="#221c29"/><circle cx="776" cy="840" r="4" fill="#221c29"/><circle cx="776" cy="904" r="4" fill="#221c29"/><circle cx="776" cy="968" r="4" fill="#221c29"/><circle cx="840" cy="8" r="4" fill="#221c29"/><circle cx="840" cy="72" r="4" fill="#221c29"/><circle cx="840" cy="136" r="4" fill="#221c29"/><circle cx="840" cy="200" r="4" fill="#221c29"/><circle cx="840" cy="264" r="4" fill="#221c29"/><circle cx="840" cy="328" r="4" fill="#221c29"/><circle cx="840" cy="392" r="4" fill="#221c29"/><circle cx="840" cy="456" r="4" fill="#221c29"/><circle cx="840" cy="520" r="4" fill="#221c29"/><circle cx="840" cy="584" r="4" fill="#221c29"/><circle cx="840" cy="648" r="4" fill="#221c29"/><circle cx="840" cy="712" r="4" fill="#221c29"/><circle cx="840" cy="776" r="4" fill="#221c29"/><circle cx="840" cy="840" r="4" fill="#221c29"/><circle cx="840" cy="904" r="4" fill="#221c29"/><circle cx="840" cy="968" r="4" fill="#221c29"/><circle cx="904" cy="8" r="4" fill="#221c29"/><circle cx="904" cy="72" r="4" fill="#221c29"/><circle cx="904" cy="136" r="4" fill="#221c29"/><circle cx="904" cy="200" r="4" fill="#221c29"/><circle cx="904" cy="264" r="4" fill="#221c29"/><circle cx="904" cy="328" r="4" fill="#221c29"/><circle cx="904" cy="392" r="4" fill="#221c29"/><circle cx="904" cy="456" r="4" fill="#221c29"/><circle cx="904" cy="520" r="4" fill="#221c29"/><circle cx="904" cy="584" r="4" fill="#221c29"/><circle cx="904" cy="648" r="4" fill="#221c29"/><circle cx="904" cy="712" r="4" fill="#221c29"/><circle cx="904" cy="776" r="4" fill="#221c29"/><circle cx="904" cy="840" r="4" fill="#221c29"/><circle cx="904" cy="904" r="4" fill="#221c29"/><circle cx="904" cy="968" r="4" fill="#221c29"/><circle cx="968" cy="8" r="4" fill="#221c29"/><circle cx="968" cy="72" r="4" fill="#221c29"/><circle cx="968" cy="136" r="4" fill="#221c29"/><circle cx="968" cy="200" r="4" fill="#221c29"/><circle cx="968" cy="264" r="4" fill="#221c29"/><circle cx="968" cy="328" r="4" fill="#221c29"/><circle cx="968" cy="392" r="4" fill="#221c29"/><circle cx="968" cy="456" r="4" fill="#221c29"/><circle cx="968" cy="520" r="4" fill="#221c29"/><circle cx="968" cy="584" r="4" fill="#221c29"/><circle cx="968" cy="648" r="4" fill="#221c29"/><circle cx="968" cy="712" r="4" fill="#221c29"/><circle cx="968" cy="776" r="4" fill="#221c29"/><circle cx="968" cy="840" r="4" fill="#221c29"/><circle cx="968" cy="904" r="4" fill="#221c29"/><circle cx="968" cy="968" r="4" fill="#221c29"/>
</g>
<g transform="translate(512,512) scale(3.45) translate(-100,-100)">

  <!-- blueprint ring -->
  <circle cx="100" cy="100" r="93" fill="none" stroke="#534ab7" stroke-width="2.4"
          stroke-dasharray="7 6" opacity="0.85"/>
  <!-- ingress pipe -->
  <line x1="100" y1="-2" x2="100" y2="14" stroke="#ef9f27" stroke-width="3.4"
        stroke-dasharray="5 4" stroke-linecap="round"/>
  <!-- shard ring -->
  <path d="M104.88,20.15 A80,80 0 0,1 153.01,40.08 L126.50,70.04 A40,40 0 0,0 102.44,60.07 Z" fill="#ef9f27"/><path d="M159.92,46.99 A80,80 0 0,1 179.85,95.12 L139.93,97.56 A40,40 0 0,0 129.96,73.50 Z" fill="#262030" stroke="#3a3344" stroke-width="1.6"/><path d="M179.85,104.88 A80,80 0 0,1 159.92,153.01 L129.96,126.50 A40,40 0 0,0 139.93,102.44 Z" fill="#262030" stroke="#3a3344" stroke-width="1.6"/><path d="M153.01,159.92 A80,80 0 0,1 104.88,179.85 L102.44,139.93 A40,40 0 0,0 126.50,129.96 Z" fill="#262030" stroke="#3a3344" stroke-width="1.6"/><path d="M95.12,179.85 A80,80 0 0,1 46.99,159.92 L73.50,129.96 A40,40 0 0,0 97.56,139.93 Z" fill="#262030" stroke="#3a3344" stroke-width="1.6"/><path d="M40.08,153.01 A80,80 0 0,1 20.15,104.88 L60.07,102.44 A40,40 0 0,0 70.04,126.50 Z" fill="#262030" stroke="#3a3344" stroke-width="1.6"/><path d="M20.15,95.12 A80,80 0 0,1 40.08,46.99 L70.04,73.50 A40,40 0 0,0 60.07,97.56 Z" fill="#262030" stroke="#3a3344" stroke-width="1.6"/><path d="M46.99,40.08 A80,80 0 0,1 95.12,20.15 L97.56,60.07 A40,40 0 0,0 73.50,70.04 Z" fill="#262030" stroke="#3a3344" stroke-width="1.6"/>
  <!-- leader LED on the elected shard -->
  <circle cx="122.96"
          cy="44.57" r="5.5" fill="#141118"/>
  <circle cx="122.96"
          cy="44.57" r="3.4" fill="#9fe1cb"/>
  <!-- hub -->
  <circle cx="100" cy="100" r="26" fill="#1b1721" stroke="#534ab7" stroke-width="2"
          stroke-dasharray="4.5 3.5"/>
  <circle cx="100" cy="100" r="5" fill="#ef9f27"/>

</g>
</svg>